<svg id="5cb2b08a-80c3-490c-9ddb-66304c073864" data-name="Layer 1" xmlns="http://www.w3.org/2000/svg" xmlns:xlink="http://www.w3.org/1999/xlink" viewBox="0 0 37 55"><defs><style>.\35 76d92e5-e19c-4189-94b4-5208089241f3,.a3b0e56c-362f-469d-a0c7-47e30182461c{fill:none;}.\35 76d92e5-e19c-4189-94b4-5208089241f3{clip-rule:evenodd;}.\34 36dccd6-dfa8-43a7-baa4-7a860fdba8eb{clip-path:url(#c64666ed-d86c-4364-8a9e-3de3875a42c9);}.\38 7d428a2-ee1d-4bb9-adf7-803b492e37fa{clip-path:url(#3de993f0-fae2-4cf8-a282-67478ef9bd4c);}.e1a7b0cc-eb91-43c7-9f9f-3e74d394369d{fill:#0f2d3b;}</style><clipPath id="c64666ed-d86c-4364-8a9e-3de3875a42c9" transform="translate(-32 -21)"><path class="576d92e5-e19c-4189-94b4-5208089241f3" d="M64,39.42c0-.61-1.06-1.21-1.13-1.74s.75-1.44.6-2-1.36-.83-1.58-1.36.38-1.59,0-2.12-1.51-.38-2-.83-.08-1.67-.6-2-1.58.08-2.11-.3-.53-1.52-1.13-1.82-1.51.53-2.11.3S53,26.16,52.39,26s-1.28.91-1.89.91-1.28-1-1.89-.91-1,1.21-1.58,1.44-1.51-.61-2.11-.3-.6,1.44-1.13,1.82-1.66-.15-2.11.3-.15,1.59-.6,2-1.58.38-2,.83.3,1.59,0,2.12-1.43.76-1.58,1.36.68,1.44.6,2S37,38.81,37,39.49s1.06,1.21,1.13,1.74-.75,1.44-.6,2,1.36.83,1.58,1.36-.38,1.59,0,2.12,1.51.38,2,.83.08,1.67.6,2,1.58-.08,2.11.3.53,1.52,1.13,1.82,1.51-.53,2.11-.3,1,1.29,1.58,1.44S49.9,52,50.5,52s1.28,1,1.89.91,1-1.21,1.58-1.44,1.51.61,2.11.3.6-1.44,1.13-1.82,1.66.15,2.11-.3.15-1.59.6-2,1.58-.38,2-.83-.3-1.59,0-2.12,1.43-.76,1.58-1.36-.68-1.44-.6-2S64,40.1,64,39.42ZM50.5,49.72a10.27,10.27,0,1,1,10.26-10.3A10.29,10.29,0,0,1,50.5,49.72Zm8.6-10.3a8.6,8.6,0,1,1-8.6-8.64A8.61,8.61,0,0,1,59.1,39.42Zm-.45,12a2.45,2.45,0,0,0,1.13-.23v19.4c0,.38-.45.61-.68.3l-8.3-6.74a.36.36,0,0,0-.53,0L42,70.86a.42.42,0,0,1-.68-.3V51.16a2.62,2.62,0,0,0,1.13.23H43a3,3,0,0,0,1.36,1.74,2,2,0,0,0,.91.23,2.91,2.91,0,0,0,1.28-.3h.08a3.06,3.06,0,0,0,1.81,1.29h.3a3.3,3.3,0,0,0,1.81-.76h.15a3.08,3.08,0,0,0,1.81.76h.3a3.06,3.06,0,0,0,1.81-1.29h.08a3.54,3.54,0,0,0,1.28.3,2,2,0,0,0,.91-.23,3,3,0,0,0,1.36-1.74h.45Z"/></clipPath><clipPath id="3de993f0-fae2-4cf8-a282-67478ef9bd4c" transform="translate(-32 -21)"><rect class="a3b0e56c-362f-469d-a0c7-47e30182461c" x="37" y="26" width="27" height="45"/></clipPath></defs><title>award-icon</title><g class="436dccd6-dfa8-43a7-baa4-7a860fdba8eb"><g class="87d428a2-ee1d-4bb9-adf7-803b492e37fa"><rect class="e1a7b0cc-eb91-43c7-9f9f-3e74d394369d" width="37" height="55"/></g></g></svg>