<svg id="Capa_1" data-name="Capa 1" xmlns="http://www.w3.org/2000/svg" viewBox="0 0 15.31 15.31"><defs><style>.cls-1{fill:#030104;}</style></defs><title>calendar</title><path d="M4.36.33H3.67a.41.41,0,0,0-.46.36v3c0,.2.2.37.46.37h.69a.43.43,0,0,0,.47-.37v-3A.43.43,0,0,0,4.36.33Z"/><path d="M11.65.33H11a.41.41,0,0,0-.46.36v3A.42.42,0,0,0,11,4h.7a.43.43,0,0,0,.46-.37v-3A.42.42,0,0,0,11.65.33Z"/><path d="M14.51,1.42H12.67V3.7a1,1,0,0,1-1,.92H11a1,1,0,0,1-1-.92V1.42H5.38V3.7a1,1,0,0,1-1,.92H3.67a1,1,0,0,1-1-.92V1.42H.8A.56.56,0,0,0,.25,2V14.76a.55.55,0,0,0,.55.55H14.51a.55.55,0,0,0,.56-.55V2A.56.56,0,0,0,14.51,1.42Zm-.19,8.07v4.35a.19.19,0,0,1-.18.18h-13A.18.18,0,0,1,1,13.84V6a.18.18,0,0,1,.17-.18h13a.18.18,0,0,1,.18.18Z"/><rect x="2.33" y="8.93" width="1.73" height="1.74"/><rect x="5.28" y="8.93" width="1.73" height="1.74"/><rect x="8.2" y="8.93" width="1.73" height="1.74"/><rect x="11.16" y="8.93" width="1.74" height="1.74"/><rect x="2.36" y="11.43" width="1.74" height="1.74"/><rect x="5.32" y="11.43" width="1.73" height="1.74"/><rect x="8.24" y="11.43" width="1.73" height="1.74"/><rect x="11.19" y="11.43" width="1.73" height="1.74"/><rect x="8.22" y="6.47" width="1.73" height="1.73"/><rect x="11.17" y="6.47" width="1.73" height="1.73"/><rect x="5.28" y="6.47" width="1.73" height="1.74"/></svg>