<svg id="99929b15-c6e9-449b-8592-d9bfb39d2e67" data-name="Layer 1" xmlns="http://www.w3.org/2000/svg" xmlns:xlink="http://www.w3.org/1999/xlink" viewBox="0 0 99 99"><defs><style>.\34 0097710-9eab-48f8-aa93-fd87559480b0,.\36 1f3b4ac-b4fc-4614-ae1d-531e3e372018,.ecee18bb-54fd-48e5-9c5f-2a80c9f30207{fill:none;}.\34 0097710-9eab-48f8-aa93-fd87559480b0{clip-rule:evenodd;}.\35 3d44a2f-a71b-4aec-8d66-a6fab9ab90f0{clip-path:url(#5cfeb548-ddc1-4404-9c03-f772e5ef2ad8);}.\36 1f3b4ac-b4fc-4614-ae1d-531e3e372018{stroke:#a4d4d9;stroke-miterlimit:10;}.\37 e4902d5-14c5-4545-bc43-f296dac35f9b{clip-path:url(#f97b57f7-a77d-4256-a47f-dd3bc8477412);}.a3e24246-1b30-4691-8ed2-26d63af11a76{fill:#30383b;}</style><clipPath id="5cfeb548-ddc1-4404-9c03-f772e5ef2ad8" transform="translate(-0.5 -0.5)"><rect class="ecee18bb-54fd-48e5-9c5f-2a80c9f30207" x="-4" y="-6" width="108" height="108"/></clipPath><clipPath id="f97b57f7-a77d-4256-a47f-dd3bc8477412" transform="translate(-0.5 -0.5)"><path class="40097710-9eab-48f8-aa93-fd87559480b0" d="M72,64.59a.64.64,0,0,0,.63-.63V63a.63.63,0,0,0-.63-.63H27.48a.63.63,0,0,0-.45.18l0,0a.63.63,0,0,0-.17.43V64a.63.63,0,0,0,.63.63ZM68.66,35a1.48,1.48,0,0,1,1.48,1.48V61.57H72A1.48,1.48,0,0,1,73.46,63V64A1.48,1.48,0,0,1,72,65.44H27.48A1.48,1.48,0,0,1,26,64V63a1.48,1.48,0,0,1,.41-1,1.49,1.49,0,0,1,1.07-.46h1.84V36.48A1.48,1.48,0,0,1,30.8,35Zm-37.86.84a.64.64,0,0,0-.45.19.63.63,0,0,0-.18.45V61.57H69.29V36.48a.64.64,0,0,0-.63-.63Zm11.81,28a.42.42,0,1,1,0-.85h14a.42.42,0,1,1,0,.85ZM31.88,37a.42.42,0,0,0-.42.42V60a.42.42,0,0,0,.42.42h35.7A.43.43,0,0,0,68,60V37.46a.42.42,0,0,0-.42-.42Zm.42,22.5H67.15V37.88H32.3Z"/></clipPath></defs><title>computer-icon</title><g class="53d44a2f-a71b-4aec-8d66-a6fab9ab90f0"><circle class="61f3b4ac-b4fc-4614-ae1d-531e3e372018" cx="49.5" cy="49.5" r="49"/></g><g class="7e4902d5-14c5-4545-bc43-f296dac35f9b"><g class="53d44a2f-a71b-4aec-8d66-a6fab9ab90f0"><rect class="a3e24246-1b30-4691-8ed2-26d63af11a76" x="20.5" y="29.5" width="57.46" height="40.44"/></g></g></svg>