<svg id="0da85026-e8b1-4914-abb6-5bc78ff8b35b" data-name="Layer 1" xmlns="http://www.w3.org/2000/svg" xmlns:xlink="http://www.w3.org/1999/xlink" viewBox="0 0 43 28"><defs><style>.\36 1a5cc72-c223-4a3f-a590-8f94ef9c9e3e,.\37 1c22dbd-0bfa-4ccd-99fe-75eee2923fbd{fill:none;}.\36 1a5cc72-c223-4a3f-a590-8f94ef9c9e3e{clip-rule:evenodd;}.edbd4eb4-0ae5-4e8b-824f-aaf07bf74041{clip-path:url(#4a62cae7-0d5e-4409-b255-ff8e62b77190);}.ef2173b0-c1f5-42ac-a077-765ab1be131f{clip-path:url(#f288071d-f2ed-45c1-b9d0-0c3fbdcc6275);}.\30 ae1ab80-087d-40be-8d2a-f8c851458ef3{isolation:isolate;}.\35 9763eed-0191-4ce1-8042-6f7d8b951a5f{clip-path:url(#95fca5fb-6fdb-45ea-9e63-ce0bb4225bbc);}.\31 6cf1d7b-94f0-4ffe-a54f-5e3da1d2a312{clip-path:url(#fff82b13-637b-49ea-a2a9-d5d5250dc9c6);}.\36 b0d1730-28c2-40bf-bbe2-f94363e06554{fill:#0f2d3b;}</style><clipPath id="4a62cae7-0d5e-4409-b255-ff8e62b77190" transform="translate(-32 -33)"><polygon class="61a5cc72-c223-4a3f-a590-8f94ef9c9e3e" points="70 47 70 38 37 38 37 47 37 56 70 56 70 47"/></clipPath><clipPath id="f288071d-f2ed-45c1-b9d0-0c3fbdcc6275" transform="translate(-32 -33)"><rect class="71c22dbd-0bfa-4ccd-99fe-75eee2923fbd" x="37" y="38" width="34" height="19"/></clipPath><clipPath id="95fca5fb-6fdb-45ea-9e63-ce0bb4225bbc" transform="translate(-32 -33)"><rect class="71c22dbd-0bfa-4ccd-99fe-75eee2923fbd" x="37" y="38" width="33" height="18"/></clipPath><clipPath id="fff82b13-637b-49ea-a2a9-d5d5250dc9c6" transform="translate(-32 -33)"><path class="61a5cc72-c223-4a3f-a590-8f94ef9c9e3e" d="M53.5,38,37,44.12l16.5,6.12L70,44.12ZM38.83,45.56v3a1.78,1.78,0,0,1,1.47,0V46.1Zm4.4,1.63V52.4c0,1.51,4.58,3.6,10.27,3.6s10.27-2.09,10.27-3.6V47.19l-10,3.71a.75.75,0,0,1-.53,0Zm-3.67,2a1.08,1.08,0,1,0,1.1,1.08A1.09,1.09,0,0,0,39.57,49.16Z"/></clipPath></defs><title>education-icon</title><g class="edbd4eb4-0ae5-4e8b-824f-aaf07bf74041"><g class="ef2173b0-c1f5-42ac-a077-765ab1be131f"><g class="0ae1ab80-087d-40be-8d2a-f8c851458ef3"><g class="59763eed-0191-4ce1-8042-6f7d8b951a5f"><g class="16cf1d7b-94f0-4ffe-a54f-5e3da1d2a312"><g class="59763eed-0191-4ce1-8042-6f7d8b951a5f"><rect class="6b0d1730-28c2-40bf-bbe2-f94363e06554" width="43" height="28"/></g></g></g></g></g></g></svg>