<svg id="13b01e76-354e-4dbc-bd16-79f5b8e29ef8" data-name="Layer 1" xmlns="http://www.w3.org/2000/svg" xmlns:xlink="http://www.w3.org/1999/xlink" viewBox="0 0 56 56"><defs><style>.\31 825c4ac-af8e-4dc2-88a6-18342d14393e,.db389de0-cc41-4e1d-b71a-bd058852b3c2{fill:none;}.db389de0-cc41-4e1d-b71a-bd058852b3c2{clip-rule:evenodd;}.\34 d6377fd-5235-4121-abef-d7ab00dc1b31{clip-path:url(#1e25ebe2-105a-4b33-be8c-86c5582c8bba);}.\34 b3bcc31-a8c5-40e1-b806-829ebf04e582{clip-path:url(#64fdef53-e8f6-490b-86cd-788b09709238);}.e26f9ff4-6fc2-4887-8930-92e269178d74{isolation:isolate;}.\36 347a34e-414b-4201-997c-0ba6a95e1774{clip-path:url(#b3c39189-62bd-4d70-9a80-808f968a0aff);}.\32 4cc7840-b7d6-4a62-abd7-ff0a2e5d46c5{fill:#669dac;}.\31 0c08818-cfbf-456f-9713-f959219a13a7{clip-path:url(#98c2fa0d-7a7e-423c-bd4a-4c8b009d9b85);}.\38 88047a6-3426-401e-b737-48e195ddef0e{fill:#fff;}</style><clipPath id="1e25ebe2-105a-4b33-be8c-86c5582c8bba" transform="translate(-23 -16)"><rect class="1825c4ac-af8e-4dc2-88a6-18342d14393e" x="28" y="21" width="46" height="46"/></clipPath><clipPath id="64fdef53-e8f6-490b-86cd-788b09709238" transform="translate(-23 -16)"><rect class="1825c4ac-af8e-4dc2-88a6-18342d14393e" x="27" y="19" width="48" height="49"/></clipPath><clipPath id="b3c39189-62bd-4d70-9a80-808f968a0aff" transform="translate(-23 -16)"><path class="db389de0-cc41-4e1d-b71a-bd058852b3c2" d="M74,44A23,23,0,1,1,51,21,23,23,0,0,1,74,44"/></clipPath><clipPath id="98c2fa0d-7a7e-423c-bd4a-4c8b009d9b85" transform="translate(-23 -16)"><path class="db389de0-cc41-4e1d-b71a-bd058852b3c2" d="M52.81,57.65V45.23h1.43c.79,0,1.58,0,2.36,0A.46.46,0,0,0,57,45c.22-1.51.41-3,.61-4.6H52.87c0-1.34-.07-2.63,0-3.91A1.48,1.48,0,0,1,54.44,35c.74-.07,1.48-.06,2.22-.08h1V30.59c-.23,0-.46-.07-.7-.08a15.14,15.14,0,0,0-5.22.21,5.43,5.43,0,0,0-3.94,4.88c-.09,1.39-.07,2.79-.09,4.18,0,.18,0,.35,0,.57H43.6v4.85h4.12V57.62Z"/></clipPath></defs><title>fb</title><g class="4d6377fd-5235-4121-abef-d7ab00dc1b31"><g class="4b3bcc31-a8c5-40e1-b806-829ebf04e582"><g class="e26f9ff4-6fc2-4887-8930-92e269178d74"><g class="4d6377fd-5235-4121-abef-d7ab00dc1b31"><g class="6347a34e-414b-4201-997c-0ba6a95e1774"><g class="4d6377fd-5235-4121-abef-d7ab00dc1b31"><rect class="24cc7840-b7d6-4a62-abd7-ff0a2e5d46c5" width="56" height="56"/></g></g></g></g></g></g><g class="10c08818-cfbf-456f-9713-f959219a13a7"><g class="4b3bcc31-a8c5-40e1-b806-829ebf04e582"><rect class="888047a6-3426-401e-b737-48e195ddef0e" x="15.6" y="9.38" width="24.11" height="37.27"/></g></g></svg>