<svg id="2f2412f9-9921-4b99-9031-9edd99a1c5e8" data-name="Layer 1" xmlns="http://www.w3.org/2000/svg" xmlns:xlink="http://www.w3.org/1999/xlink" viewBox="0 0 99 99"><defs><style>.\39 25304ae-594f-4bda-a5a9-07cce7202cc7,.\39 fc9213e-7a0f-474d-ad8a-dac8671bc901,.abbf6db9-0c67-4528-8494-afe99d471b08{fill:none;}.\39 25304ae-594f-4bda-a5a9-07cce7202cc7{clip-rule:evenodd;}.\30 b586af8-92f9-4ff6-acfb-756776c1018f{clip-path:url(#d71bdd5d-f357-43e1-bbc8-eae492dc9d41);}.\37 2ba327c-1836-4238-a667-30f33aa5a969{clip-path:url(#33c362f7-7191-4854-b725-d936ca796ac4);}.\34 d5841c5-5587-40ec-a02a-6677e6256209{fill:#0f2d3b;}.\39 fc9213e-7a0f-474d-ad8a-dac8671bc901{stroke:#a4d4d9;stroke-miterlimit:10;}</style><clipPath id="d71bdd5d-f357-43e1-bbc8-eae492dc9d41" transform="translate(-0.5 -0.5)"><path class="925304ae-594f-4bda-a5a9-07cce7202cc7" d="M41.22,35.94H29.83a1.9,1.9,0,0,0-1.89,1.89v23a4.26,4.26,0,0,0,4.25,4.25h6.67a4.26,4.26,0,0,0,4.25-4.25V53a.48.48,0,0,1,.47-.47H57a.47.47,0,0,1,.47.47v7.78a4.26,4.26,0,0,0,4.25,4.25h6.67a4.26,4.26,0,0,0,4.25-4.25v-23a1.89,1.89,0,0,0-1.89-1.89H59.31A1.88,1.88,0,0,0,58,36.5h0a1.88,1.88,0,0,0-.55,1.33v.51a.47.47,0,0,1-.47.47H43.58a.47.47,0,0,1-.47-.47v-.51a1.88,1.88,0,0,0-.55-1.33h0A1.88,1.88,0,0,0,41.22,35.94ZM48,49.49a.47.47,0,0,1,0-.94h4.55a.47.47,0,0,1,0,.94ZM65.8,43.33H69v-3.2H65.8Zm3.67.94H65.32a.47.47,0,0,1-.47-.47V39.66a.47.47,0,0,1,.47-.47h4.14a.47.47,0,0,1,.47.47V43.8A.47.47,0,0,1,69.46,44.27Zm-9.27,4.79h3.2v-3.2h-3.2Zm3.67.94H59.72a.47.47,0,0,1-.47-.47V45.39a.47.47,0,0,1,.47-.47h4.14a.47.47,0,0,1,.47.47v4.14A.47.47,0,0,1,63.86,50ZM47.93,35.59h5.3a.47.47,0,0,1,.47.47v1.81h2.78v0a2.82,2.82,0,0,1,.83-2h0a2.82,2.82,0,0,1,2-.83H70.7a2.83,2.83,0,0,1,2.83,2.83v23A5.2,5.2,0,0,1,68.33,66H61.67a5.2,5.2,0,0,1-5.19-5.19V53.51H44.05v7.31A5.2,5.2,0,0,1,38.86,66H32.19A5.2,5.2,0,0,1,27,60.81v-23A2.83,2.83,0,0,1,29.83,35H41.22a2.83,2.83,0,0,1,2,.83h0a2.82,2.82,0,0,1,.83,2v0h3.41V36.06A.47.47,0,0,1,47.93,35.59Zm4.83.94v1.34H48.4V36.53Zm-15,3.17v2.86a.47.47,0,0,0,.47.47h2.86v3.09H38.22a.47.47,0,0,0-.47.47v2.86H34.66V46.59a.47.47,0,0,0-.47-.47H31.33V43h2.86a.47.47,0,0,0,.47-.47V39.7Zm-3.56-.94h4a.47.47,0,0,1,.47.47v2.86h2.86a.47.47,0,0,1,.47.47v4a.47.47,0,0,1-.47.47H38.69v2.86a.47.47,0,0,1-.47.47h-4a.47.47,0,0,1-.47-.47V47.06H30.86a.47.47,0,0,1-.47-.47v-4a.47.47,0,0,1,.47-.47h2.86V39.23A.47.47,0,0,1,34.19,38.76Z"/></clipPath><clipPath id="33c362f7-7191-4854-b725-d936ca796ac4" transform="translate(-0.5 -0.5)"><rect class="abbf6db9-0c67-4528-8494-afe99d471b08" x="-4" y="-5" width="108" height="108"/></clipPath></defs><title>game-icon</title><g class="0b586af8-92f9-4ff6-acfb-756776c1018f"><g class="72ba327c-1836-4238-a667-30f33aa5a969"><rect class="4d5841c5-5587-40ec-a02a-6677e6256209" x="21.5" y="29.5" width="56.53" height="41"/></g></g><g class="72ba327c-1836-4238-a667-30f33aa5a969"><circle class="9fc9213e-7a0f-474d-ad8a-dac8671bc901" cx="49.5" cy="49.5" r="49"/></g></svg>