<svg id="96cc0fed-2ab9-46cd-95ee-2d40018f6aed" data-name="Layer 1" xmlns="http://www.w3.org/2000/svg" xmlns:xlink="http://www.w3.org/1999/xlink" viewBox="0 0 56 56"><defs><style>.\38 b133bd7-912b-444c-9d41-b745651406e0,.c1eafca5-0c20-4a83-9fdd-7e88d3334c6e{fill:none;}.c1eafca5-0c20-4a83-9fdd-7e88d3334c6e{clip-rule:evenodd;}.\39 441c9a1-aa6b-443e-8f70-54684dc7c96a{clip-path:url(#b0960aca-fbb5-466a-8ead-e8dae9e8dda8);}.ddc85145-f8bd-479b-8bbf-9ac706fe5833{clip-path:url(#d505143d-3d58-4ebe-81a0-984fa6d30592);}.\39 aaa50f5-fa35-4711-b217-8fd44ca70524{fill:#669dac;}.\32 7c0253d-6fae-4bdb-bcfa-87c93a9206e6{clip-path:url(#1fb2e56d-154f-4986-9925-6d12f0271578);}.f2439fd8-ca04-4f06-9f0e-d66105a122d7{fill:#fff;}.\30 cef7762-9620-48e7-93a8-8833cac9d586{clip-path:url(#15315b1b-0981-4b51-9efe-5e832091dee3);}</style><clipPath id="b0960aca-fbb5-466a-8ead-e8dae9e8dda8" transform="translate(-26 -19)"><path class="c1eafca5-0c20-4a83-9fdd-7e88d3334c6e" d="M77,47A23,23,0,1,1,54,24,23,23,0,0,1,77,47"/></clipPath><clipPath id="d505143d-3d58-4ebe-81a0-984fa6d30592" transform="translate(-26 -19)"><rect class="8b133bd7-912b-444c-9d41-b745651406e0" x="30" y="22" width="48" height="49"/></clipPath><clipPath id="1fb2e56d-154f-4986-9925-6d12f0271578" transform="translate(-26 -19)"><path class="c1eafca5-0c20-4a83-9fdd-7e88d3334c6e" d="M56.07,38.69a3.5,3.5,0,0,1,1.06,1.22,3.72,3.72,0,0,1,.39,1.76,4.28,4.28,0,0,1-.38,1.81,4.08,4.08,0,0,1-1.06,1.41,4.86,4.86,0,0,1-1.63.91,6.63,6.63,0,0,1-2.13.32H51.11a.68.68,0,0,0-.55.29,1.07,1.07,0,0,0-.23.67,1.21,1.21,0,0,0,.5,1,2.73,2.73,0,0,0,1.57.4l2,0a5.53,5.53,0,0,1,3.31.84A3.1,3.1,0,0,1,58.75,52a5.12,5.12,0,0,1-.66,2.69,5.51,5.51,0,0,1-1.69,1.77,7,7,0,0,1-2.29,1,10.67,10.67,0,0,1-2.44.29,6.81,6.81,0,0,1-3.93-1,3.2,3.2,0,0,1-.7-4.67A4.79,4.79,0,0,1,49,50.81v-.05A2.46,2.46,0,0,1,47.85,50a1.87,1.87,0,0,1-.42-1.25,2.68,2.68,0,0,1,.68-1.72,3.39,3.39,0,0,1,1.81-1.13v-.05a4.63,4.63,0,0,1-2.52-1.45,4.16,4.16,0,0,1-.91-2.79,3.91,3.91,0,0,1,.42-1.82,3.84,3.84,0,0,1,1.17-1.35,5.58,5.58,0,0,1,1.8-.84,8.49,8.49,0,0,1,2.31-.29q.48,0,1,0l1,.07.71,0h3.63c0,.11,0,.21,0,.32s0,.21,0,.32,0,.21,0,.32,0,.21,0,.32l-2.36-.11Zm-.43,14.72a2.66,2.66,0,0,0-.27-1.27,1.85,1.85,0,0,0-.76-.76A3.51,3.51,0,0,0,53.38,51a12.78,12.78,0,0,0-1.64-.09,4.78,4.78,0,0,0-1.93.27,2,2,0,0,0-.68.78,3.47,3.47,0,0,0-.08,2.91,2.67,2.67,0,0,0,.76,1,3.52,3.52,0,0,0,1.11.58,4.42,4.42,0,0,0,1.35.2,3.63,3.63,0,0,0,1.39-.25,3.22,3.22,0,0,0,1.06-.7,3,3,0,0,0,.67-1A3.29,3.29,0,0,0,55.64,53.41Zm-3.57-15q-1.82,0-1.82,3.54a5.86,5.86,0,0,0,.16,1.49,3.23,3.23,0,0,0,.41,1,1.59,1.59,0,0,0,.56.54,1.36,1.36,0,0,0,.63.16,1.41,1.41,0,0,0,1.31-.78,5.83,5.83,0,0,0,.43-2.63,4.94,4.94,0,0,0-.48-2.56A1.41,1.41,0,0,0,52.07,38.42Z"/></clipPath><clipPath id="15315b1b-0981-4b51-9efe-5e832091dee3" transform="translate(-26 -19)"><polygon class="c1eafca5-0c20-4a83-9fdd-7e88d3334c6e" points="63.09 42.73 63.09 45.51 65.87 45.51 65.87 46.78 63.09 46.78 63.09 49.56 61.83 49.56 61.83 46.78 59.05 46.78 59.05 45.51 61.83 45.51 61.83 42.73 63.09 42.73"/></clipPath></defs><title>google-plus</title><g class="9441c9a1-aa6b-443e-8f70-54684dc7c96a"><g class="ddc85145-f8bd-479b-8bbf-9ac706fe5833"><rect class="9aaa50f5-fa35-4711-b217-8fd44ca70524" width="56" height="56"/></g></g><g class="27c0253d-6fae-4bdb-bcfa-87c93a9206e6"><g class="ddc85145-f8bd-479b-8bbf-9ac706fe5833"><rect class="f2439fd8-ca04-4f06-9f0e-d66105a122d7" x="15.33" y="13.32" width="22.41" height="30.38"/></g></g><g class="0cef7762-9620-48e7-93a8-8833cac9d586"><g class="ddc85145-f8bd-479b-8bbf-9ac706fe5833"><rect class="f2439fd8-ca04-4f06-9f0e-d66105a122d7" x="28.05" y="18.74" width="16.82" height="16.82"/></g></g></svg>