<svg id="1505aea0-15c0-41d5-afd3-7c6f2ee002f1" data-name="Layer 1" xmlns="http://www.w3.org/2000/svg" xmlns:xlink="http://www.w3.org/1999/xlink" viewBox="0 0 99 99"><defs><style>.\30 71731e3-f08b-4b1c-a38a-6a7ccfc479f1,.\31 75b3ff4-86bc-4dad-9428-17a65d6f55cc,.fc7c4ec1-a5db-4f96-a283-94e88753ae25{fill:none;}.\31 75b3ff4-86bc-4dad-9428-17a65d6f55cc{clip-rule:evenodd;}.b2a7ddfa-aeae-4090-94f6-17e8b15cd8fe{clip-path:url(#71b35a96-cedc-41e1-bba0-44c352ed02d2);}.\30 71731e3-f08b-4b1c-a38a-6a7ccfc479f1{stroke:#a4d4d9;stroke-miterlimit:10;}.e71b58eb-367e-4d93-bd60-dbea4b64b633{clip-path:url(#c9fe2b36-d2bc-43bb-ac3c-85d31c5aaa69);}.fd502f65-0792-4420-94d1-c41d41440c97{fill:#30383b;}</style><clipPath id="71b35a96-cedc-41e1-bba0-44c352ed02d2" transform="translate(-0.5 -0.5)"><rect class="fc7c4ec1-a5db-4f96-a283-94e88753ae25" x="-3" y="-5" width="108" height="108"/></clipPath><clipPath id="c9fe2b36-d2bc-43bb-ac3c-85d31c5aaa69" transform="translate(-0.5 -0.5)"><path class="175b3ff4-86bc-4dad-9428-17a65d6f55cc" d="M51,66.89c1.12-.83,2.42-1.72,3.82-2.68C61.73,59.47,71,53.11,71,46.37a10,10,0,0,0-4.44-8.75,10.19,10.19,0,0,0-4.37-1.56,10,10,0,0,0-4.59.53,9.71,9.71,0,0,0-6.1,7.26.5.5,0,0,1-.6.37.49.49,0,0,1-.38-.37,9.71,9.71,0,0,0-6.1-7.25,10,10,0,0,0-4.6-.53,10.2,10.2,0,0,0-4.37,1.56A10,10,0,0,0,31,46.37c0,6.74,9.26,13.1,16.18,17.85,1.39,1,2.69,1.85,3.82,2.68M55.39,65c-1.52,1-2.93,2-4.09,2.88a.51.51,0,0,1-.61,0C49.54,67,48.13,66.07,46.61,65,39.51,60.15,30,53.62,30,46.37a11,11,0,0,1,4.89-9.57,11.24,11.24,0,0,1,4.81-1.72,11.07,11.07,0,0,1,5.06.58A10.42,10.42,0,0,1,51,42a10.42,10.42,0,0,1,6.24-6.34,11.07,11.07,0,0,1,5.06-.58,11.24,11.24,0,0,1,4.81,1.72A11,11,0,0,1,72,46.37C72,53.62,62.49,60.15,55.39,65"/></clipPath></defs><title>heart-icon</title><g class="b2a7ddfa-aeae-4090-94f6-17e8b15cd8fe"><circle class="071731e3-f08b-4b1c-a38a-6a7ccfc479f1" cx="49.5" cy="49.5" r="49"/></g><g class="e71b58eb-367e-4d93-bd60-dbea4b64b633"><g class="b2a7ddfa-aeae-4090-94f6-17e8b15cd8fe"><rect class="fd502f65-0792-4420-94d1-c41d41440c97" x="24.5" y="29.5" width="52" height="43"/></g></g></svg>