<svg id="f82e48c1-5443-4097-8bd9-9be317f36df3" data-name="Layer 1" xmlns="http://www.w3.org/2000/svg" xmlns:xlink="http://www.w3.org/1999/xlink" viewBox="0 0 56 56"><defs><style>.\38 9d830e1-3b70-4b2c-852c-be9a761cca8f,.\39 bf3e932-8d04-4e58-8b54-7f775e6af154,.b7b734dd-67b1-4ed6-8176-97b165893ce1{fill:none;}.b7b734dd-67b1-4ed6-8176-97b165893ce1{clip-rule:evenodd;}.\33 c68f1a8-16db-43a0-842e-c07fb4d10bc0{clip-path:url(#af16d67b-7252-4fd2-9660-63c4e95821d6);}.\39 29b53c4-8a25-4348-9318-401f5a2bb1b3{clip-path:url(#4d5c8d20-9b04-4583-8902-bddb3facfb1f);}.\36 39c0159-13ea-4f35-8e2e-5174be34b057{fill:#669dac;}.\30 a8a9450-a765-4b30-ae0f-2b1ffeb6b34f{clip-path:url(#71934823-c8b3-4b1f-a715-af893ba611d5);}.\35 62da6d3-796f-4034-8f8b-eebfb0cf090a{fill:#fff;}.\38 9d830e1-3b70-4b2c-852c-be9a761cca8f{stroke:#669dac;stroke-linecap:round;stroke-miterlimit:10;stroke-width:3px;}.a438b61b-58c6-4ca9-86d0-f06ec693c7e6{clip-path:url(#47eb3722-3eb3-4654-a73a-5c1b2fac2f04);}</style><clipPath id="af16d67b-7252-4fd2-9660-63c4e95821d6" transform="translate(-23 -18)"><path class="b7b734dd-67b1-4ed6-8176-97b165893ce1" d="M74,46A23,23,0,1,1,51,23,23,23,0,0,1,74,46"/></clipPath><clipPath id="4d5c8d20-9b04-4583-8902-bddb3facfb1f" transform="translate(-23 -18)"><rect class="9bf3e932-8d04-4e58-8b54-7f775e6af154" x="27" y="22" width="48" height="49"/></clipPath><clipPath id="71934823-c8b3-4b1f-a715-af893ba611d5" transform="translate(-23 -18)"><path class="b7b734dd-67b1-4ed6-8176-97b165893ce1" d="M45.34,35.76H56.7a4.91,4.91,0,0,1,4.91,4.91V52a4.91,4.91,0,0,1-4.91,4.91H45.34A4.91,4.91,0,0,1,40.44,52V40.66a4.91,4.91,0,0,1,4.91-4.91"/></clipPath><clipPath id="47eb3722-3eb3-4654-a73a-5c1b2fac2f04" transform="translate(-23 -18)"><path class="b7b734dd-67b1-4ed6-8176-97b165893ce1" d="M56.18,38.42a1.41,1.41,0,1,1-1.41,1.41,1.41,1.41,0,0,1,1.41-1.41"/></clipPath></defs><title>instagram</title><g class="3c68f1a8-16db-43a0-842e-c07fb4d10bc0"><g class="929b53c4-8a25-4348-9318-401f5a2bb1b3"><rect class="639c0159-13ea-4f35-8e2e-5174be34b057" width="56" height="56"/></g></g><g class="0a8a9450-a765-4b30-ae0f-2b1ffeb6b34f"><g class="929b53c4-8a25-4348-9318-401f5a2bb1b3"><rect class="562da6d3-796f-4034-8f8b-eebfb0cf090a" x="12.44" y="12.76" width="31.17" height="31.17"/></g></g><g class="929b53c4-8a25-4348-9318-401f5a2bb1b3"><circle class="89d830e1-3b70-4b2c-852c-be9a761cca8f" cx="28.02" cy="28.34" r="3.97"/></g><g class="a438b61b-58c6-4ca9-86d0-f06ec693c7e6"><g class="929b53c4-8a25-4348-9318-401f5a2bb1b3"><rect class="639c0159-13ea-4f35-8e2e-5174be34b057" x="26.76" y="15.42" width="12.83" height="12.83"/></g></g></svg>