<?xml version="1.0" encoding="UTF-8"?>
<svg width="1580px" height="496px" viewBox="0 0 1580 496" version="1.1" xmlns="http://www.w3.org/2000/svg" xmlns:xlink="http://www.w3.org/1999/xlink">
    <!-- Generator: Sketch 46.2 (44496) - http://www.bohemiancoding.com/sketch -->
    <title>BZ Orthodontics (Centre)</title>
    <desc>Created with Sketch.</desc>
    <defs></defs>
    <g id="Page-1" stroke="none" stroke-width="1" fill="none" fill-rule="evenodd">
        <g id="BZ-Orthodontics-(Centre)">
            <path d="M166.769,358.861 C155.288,358.861 146.03,358.49 139.737,357.378 L139.737,262.213 L166.399,262.213 C201.576,262.213 230.829,276.286 230.829,310.352 C230.829,346.641 200.094,358.861 166.769,358.861 Z M458.55,378.013 C482.14,340.117 495.816,295.441 495.816,247.612 C495.816,111.129 384.781,0.094 248.302,0.094 C124.165,0.094 21.108,91.96 3.475,211.273 L34.773,211.273 C52.111,109.057 141.225,30.953 248.302,30.953 C367.766,30.953 464.957,128.147 464.957,247.612 C464.957,286.122 454.812,322.288 437.122,353.66 L312.797,353.66 C320.647,346.58 327.851,339.736 335.027,332.07 L407.243,257.737 L407.349,257.737 L417.225,247.433 L417.225,233.05 L139.737,233.05 L139.737,157.421 C144.921,156.309 153.437,155.2 168.249,155.2 C200.835,155.2 223.051,166.679 223.051,195.932 C223.051,203.367 221.122,210.189 217.473,216.079 L250.098,216.079 C253.691,208.839 255.64,200.909 255.64,192.599 C255.64,172.974 247.862,158.159 234.9,148.534 C219.35,135.943 198.614,130.389 166.399,130.389 C143.809,130.389 121.593,132.61 107.522,135.573 L107.522,233.05 L1.195,233.742 C0.94,238.336 0.784,242.955 0.784,247.612 C0.784,384.091 111.82,495.126 248.302,495.126 C327.115,495.126 397.388,458.054 442.749,400.481 L401.529,400.481 C362.289,439.822 308.126,464.267 248.302,464.267 C132.233,464.267 37.21,372.517 31.9,257.737 L107.522,257.737 L107.522,381.077 C118.26,382.56 135.292,384.04 157.512,384.04 C198.243,384.04 226.384,376.635 243.791,360.711 C256.378,348.491 264.895,332.2 264.895,310.722 C264.895,285.189 251.688,267.935 235.719,257.737 L372.838,257.737 C365.845,264.245 359.245,270.316 352.43,276.991 L278.59,353.021 L271.338,360.857 L271.338,375.43 L271.476,375.43 L271.476,378.347 L458.55,378.013 L458.55,378.013 Z" id="Fill-1" fill="#34B0BB"></path>
            <path d="M540.744,281.667 L540.744,301.201 L554.288,301.201 C559.621,301.201 563.646,300.393 566.366,298.775 C569.085,297.158 570.445,294.605 570.445,291.118 C570.445,287.911 569.059,285.535 566.286,283.988 C563.513,282.441 559.3,281.667 553.648,281.667 L540.744,281.667 Z M540.744,273.482 L553.008,273.482 C558.341,273.482 562.233,272.814 564.686,271.478 C567.139,270.142 568.365,267.871 568.365,264.665 C568.365,261.768 567.04,259.673 564.393,258.378 C561.744,257.085 557.541,256.437 551.782,256.437 L540.744,256.437 L540.744,273.482 Z M528,248 L551.142,248 C561.877,248 569.636,249.237 574.417,251.712 C579.198,254.187 581.589,258.097 581.589,263.441 C581.589,267.042 580.416,270.037 578.07,272.428 C575.724,274.818 572.346,276.323 567.939,276.942 L567.939,277.364 C573.413,278.179 577.438,279.79 580.016,282.194 C582.593,284.599 583.882,287.855 583.882,291.962 C583.882,297.503 581.437,301.842 576.55,304.977 C571.662,308.114 564.864,309.681 556.154,309.681 L528,309.681 L528,248 L528,248 Z" id="Fill-2" fill="#40403F"></path>
            <polyline id="Fill-3" fill="#40403F" points="655.776 309.681 600 309.681 600 302.678 639.299 256.648 601.067 256.648 601.067 248 654.709 248 654.709 255.088 615.251 301.032 655.776 301.032 655.776 309.681"></polyline>
            <path d="M704.544,279.727 C704.544,287.321 706.481,293.08 710.356,297.004 C714.23,300.928 719.971,302.89 727.579,302.89 C735.151,302.89 740.865,300.948 744.722,297.067 C748.579,293.186 750.508,287.405 750.508,279.727 C750.508,272.161 748.596,266.423 744.775,262.514 C740.954,258.605 735.257,256.649 727.685,256.649 C720.042,256.649 714.275,258.605 710.383,262.514 C706.49,266.423 704.544,272.161 704.544,279.727 Z M764.052,279.727 C764.052,289.769 760.879,297.573 754.533,303.143 C748.188,308.712 739.203,311.496 727.579,311.496 C715.812,311.496 706.774,308.733 700.465,303.206 C694.154,297.679 691,289.825 691,279.643 C691,269.461 694.172,261.642 700.518,256.185 C706.863,250.729 715.919,248 727.685,248 C739.274,248 748.232,250.771 754.56,256.312 C760.887,261.853 764.052,269.658 764.052,279.727 L764.052,279.727 Z" id="Fill-4" fill="#40403F"></path>
            <path d="M793.744,277.688 L802.596,277.688 C808.532,277.688 812.834,276.817 815.5,275.073 C818.166,273.329 819.499,270.742 819.499,267.31 C819.499,263.823 818.06,261.319 815.18,259.8 C812.3,258.281 807.963,257.522 802.17,257.522 L793.744,257.522 L793.744,277.688 Z M793.744,286.043 L793.744,310.681 L781,310.681 L781,249 L803.023,249 C813.082,249 820.53,250.491 825.365,253.471 C830.199,256.453 832.616,260.954 832.616,266.972 C832.616,274.651 827.568,280.122 817.473,283.385 L839.495,310.681 L824.991,310.681 L806.329,286.043 L793.744,286.043 L793.744,286.043 Z" id="Fill-5" fill="#40403F"></path>
            <polyline id="Fill-6" fill="#40403F" points="891.67239 309.681 878.927608 309.681 878.927608 256.648 856 256.648 856 248 914.599998 248 914.599998 256.648 891.67239 256.648 891.67239 309.681"></polyline>
            <polyline id="Fill-7" fill="#40403F" points="992.481 309.681 979.683 309.681 979.683 281.878 943.744 281.878 943.744 309.681 931 309.681 931 248 943.744 248 943.744 273.229 979.683 273.229 979.683 248 992.481 248 992.481 309.681"></polyline>
            <path d="M1022.544,277.727 C1022.544,285.321 1024.481,291.08 1028.356,295.004 C1032.231,298.928 1037.972,300.89 1045.579,300.89 C1053.151,300.89 1058.865,298.948 1062.723,295.067 C1066.579,291.186 1068.508,285.405 1068.508,277.727 C1068.508,270.161 1066.597,264.423 1062.776,260.514 C1058.954,256.605 1053.258,254.649 1045.686,254.649 C1038.042,254.649 1032.276,256.605 1028.383,260.514 C1024.491,264.423 1022.544,270.161 1022.544,277.727 Z M1082.052,277.727 C1082.052,287.769 1078.879,295.573 1072.534,301.143 C1066.189,306.712 1057.203,309.496 1045.579,309.496 C1033.813,309.496 1024.775,306.733 1018.465,301.206 C1012.155,295.679 1009,287.825 1009,277.643 C1009,267.461 1012.173,259.642 1018.518,254.185 C1024.864,248.729 1033.919,246 1045.686,246 C1057.275,246 1066.233,248.771 1072.561,254.312 C1078.888,259.853 1082.052,267.658 1082.052,277.727 L1082.052,277.727 Z" id="Fill-8" fill="#40403F"></path>
            <path d="M1148.963,276.588 C1148.963,261.821 1140.237,254.437 1122.782,254.437 L1111.744,254.437 L1111.744,299.201 L1120.81,299.201 C1139.579,299.201 1148.963,291.664 1148.963,276.588 Z M1162.401,276.25 C1162.401,286.432 1158.828,294.217 1151.683,299.602 C1144.538,304.988 1134.246,307.681 1120.81,307.681 L1099,307.681 L1099,246 L1123.102,246 C1135.508,246 1145.159,248.643 1152.056,253.931 C1158.952,259.22 1162.401,266.659 1162.401,276.25 L1162.401,276.25 Z" id="Fill-9" fill="#40403F"></path>
            <path d="M1192.544,275.727 C1192.544,283.321 1194.48,289.08 1198.355,293.004 C1202.23,296.928 1207.971,298.89 1215.579,298.89 C1223.15,298.89 1228.864,296.948 1232.722,293.067 C1236.579,289.186 1238.508,283.405 1238.508,275.727 C1238.508,268.161 1236.596,262.423 1232.775,258.514 C1228.954,254.605 1223.258,252.649 1215.685,252.649 C1208.042,252.649 1202.275,254.605 1198.383,258.514 C1194.49,262.423 1192.544,268.161 1192.544,275.727 Z M1252.052,275.727 C1252.052,285.769 1248.879,293.573 1242.533,299.143 C1236.188,304.712 1227.203,307.496 1215.579,307.496 C1203.812,307.496 1194.774,304.733 1188.465,299.206 C1182.154,293.679 1179,285.825 1179,275.643 C1179,265.461 1182.173,257.642 1188.517,252.185 C1194.863,246.729 1203.919,244 1215.685,244 C1227.274,244 1236.232,246.771 1242.56,252.312 C1248.887,257.853 1252.052,265.658 1252.052,275.727 L1252.052,275.727 Z" id="Fill-10" fill="#40403F"></path>
            <path d="M1333.947,305.681 L1318.323,305.681 L1279.984,256.53 L1279.557,256.53 L1279.824,259.272 C1280.322,264.504 1280.571,269.286 1280.571,273.617 L1280.571,305.681 L1269,305.681 L1269,244 L1284.464,244 L1322.696,292.898 L1323.015,292.898 C1322.944,292.251 1322.802,289.895 1322.589,285.831 C1322.376,281.766 1322.269,278.596 1322.269,276.317 L1322.269,244 L1333.947,244 L1333.947,305.681" id="Fill-11" fill="#40403F"></path>
            <polyline id="Fill-12" fill="#40403F" points="1385.673 305.681 1372.928 305.681 1372.928 252.648 1350 252.648 1350 244 1408.601 244 1408.601 252.648 1385.673 252.648 1385.673 305.681"></polyline>
            <polygon id="Fill-13" fill="#40403F" points="1425 305.681 1437.74 305.681 1437.74 244 1425 244"></polygon>
            <path d="M1491,250.649 C1483.68,250.649 1477.92,252.703 1473.73,256.809 C1469.53,260.916 1467.44,266.583 1467.44,273.812 C1467.44,281.378 1469.45,287.102 1473.49,290.983 C1477.52,294.864 1483.36,296.806 1491,296.806 C1494.31,296.806 1497.51,296.546 1500.6,296.024 C1503.69,295.505 1506.91,294.837 1510.25,294.021 L1510.25,302.67 C1504.14,304.498 1497.21,305.412 1489.46,305.412 C1478.05,305.412 1469.28,302.677 1463.17,297.206 C1457.05,291.736 1454,283.91 1454,273.728 C1454,267.315 1455.48,261.703 1458.45,256.894 C1461.42,252.084 1465.71,248.399 1471.33,245.84 C1476.94,243.28 1483.54,242 1491.11,242 C1499.07,242 1506.43,243.322 1513.19,245.966 L1508.6,254.362 C1505.97,253.378 1503.19,252.513 1500.25,251.768 C1497.32,251.023 1494.24,250.649 1491,250.649" id="Fill-14" fill="#40403F"></path>
            <path d="M1579.91,287.819 C1579.91,293.304 1577.4,297.608 1572.39,300.73 C1567.38,303.852 1560.47,305.412 1551.65,305.412 C1542.83,305.412 1535.62,304.33 1530,302.163 L1530,292.629 C1533.56,293.951 1537.33,294.991 1541.33,295.751 C1545.33,296.51 1549.05,296.89 1552.5,296.89 C1557.55,296.89 1561.27,296.13 1563.67,294.611 C1566.07,293.093 1567.27,291.054 1567.27,288.494 C1567.27,286.188 1566.17,284.233 1563.97,282.63 C1561.76,281.026 1557.21,279.128 1550.32,276.934 C1543.21,274.655 1538.19,272.055 1535.28,269.129 C1532.36,266.204 1530.91,262.689 1530.91,258.581 C1530.91,253.434 1533.22,249.384 1537.84,246.431 C1542.46,243.477 1548.66,242 1556.45,242 C1563.91,242 1571.34,243.294 1578.74,245.882 L1574.69,254.109 C1567.75,251.803 1561.57,250.649 1556.13,250.649 C1552,250.649 1548.88,251.36 1546.74,252.78 C1544.61,254.2 1543.54,256.078 1543.54,258.412 C1543.54,260.016 1543.97,261.387 1544.82,262.525 C1545.68,263.665 1547.08,264.741 1549.04,265.753 C1550.99,266.766 1554.51,268.103 1559.59,269.762 C1565.32,271.647 1569.51,273.404 1572.18,275.035 C1574.85,276.667 1576.8,278.51 1578.04,280.563 C1579.29,282.615 1579.91,285.034 1579.91,287.819" id="Fill-15" fill="#40403F"></path>
        </g>
    </g>
</svg>