<svg xmlns="http://www.w3.org/2000/svg" viewBox="0 0 656 655"><defs><style>.a{opacity:0.05;}.b{fill:#27b8cb;}</style></defs><title>logo-bg</title><g class="a"><path class="b" d="M220,474.7c-15.21,0-27.48-.49-35.82-2V346.82h35.33c46.62,0,85.38,18.62,85.38,63.69C304.85,458.53,264.12,474.7,220,474.7ZM606.61,500A325.07,325.07,0,0,0,656,327.5C656,146.91,508.86,0,328,0,163.5,0,26.93,121.55,3.57,279.42H45C68,144.17,186.11,40.83,328,40.83c158.31,0,287.1,128.6,287.1,286.67a284.47,284.47,0,0,1-36.89,140.32H413.47c10.4-9.37,20-18.42,29.46-28.57l95.7-98.35h.14l13.09-13.64v-19H184.14V208.17c6.87-1.47,18.16-2.94,37.78-2.94,43.18,0,72.62,15.19,72.62,53.9a49.88,49.88,0,0,1-7.49,26.66h43.29a69.39,69.39,0,0,0,7.39-31.07c0-26-10.31-45.57-27.48-58.3-20.61-16.66-48.09-24-90.78-24-29.94,0-59.37,2.94-78,6.86v129l-140.9.91C.21,315.23,0,321.34,0,327.5,0,508.08,147.14,655,328,655c104.44,0,197.56-49.05,257.67-125.23H531.05A286.24,286.24,0,0,1,328,614.17c-153.81,0-279.73-121.4-286.77-273.27H141.45V504.1c14.23,2,36.8,3.92,66.24,3.92,54,0,91.27-9.8,114.33-30.87C338.7,461,350,439.42,350,411c0-33.79-17.5-56.61-38.66-70.11H493c-9.27,8.61-18,16.64-27,25.47L368.14,467l-9.61,10.37v19.28h.18v3.86Z"/></g></svg>