<svg id="f09052da-1caa-4a95-9a7f-2df9e73db31a" data-name="Layer 1" xmlns="http://www.w3.org/2000/svg" xmlns:xlink="http://www.w3.org/1999/xlink" viewBox="5 5 24 24">
  <defs>
    <style>
      .phone,
      .something,
      .square {
        fill:none;
      }
      .square {
        clip-rule:evenodd;
      }
      .thing2 {
        clip-path: url(#idtag);
      }
      .background {
        fill:#00b2c7;
      }
      .phone {
        stroke:#fff;
        stroke-miterlimit:10;
        stroke-width:0.3px;
      }
    </style>
    <clipPath id="idtag">
      <rect class="something" x="0" y="0" width="34" height="34"/>
    </clipPath>
    <clipPath id="6e8c941c-efe4-4686-bf52-97cdc553c21b">
      <path class="square" d="M45.06,45.47l-3,3.28a.16.16,0,0,0,0,.24h0l2.3,1.58A2.52,2.52,0,0,0,46,51a2.38,2.38,0,0,0,1.51-.7,39.48,39.48,0,0,0,4.17-5.18,36.81,36.81,0,0,0,3.15-5.69,1.68,1.68,0,0,0-.05-1.47,2.15,2.15,0,0,0-1.24-1L50.81,36a.21.21,0,0,0-.26.1h0L48.74,40a.17.17,0,0,0,.11.23h0l1.54.51c-.52,1-1.1,1.92-1.73,2.86h0c-.63.93-1.3,1.84-2,2.71l-1.29-.89a.23.23,0,0,0-.29,0Zm-2.58,3.36,2.77-3,1.3.89h0a.22.22,0,0,0,.28,0c.76-.92,1.49-1.89,2.16-2.89h0a34.63,34.63,0,0,0,1.84-3.06h0a.17.17,0,0,0-.12-.22L49.2,40l1.66-3.57,2.56.86a1.76,1.76,0,0,1,1,.84,1.38,1.38,0,0,1,0,1.21,36.4,36.4,0,0,1-3.12,5.64,39.12,39.12,0,0,1-4.13,5.13,2,2,0,0,1-1.24.57,2.08,2.08,0,0,1-1.35-.34Zm8.37-8.11h0Z"/>
    </clipPath>
  </defs>
  <g class="thing2">
    <g class="thing2">
      <rect class="background" width="34" height="34"/>
    </g>
  </g>
  <g class="thing2">
    <path class="phone" d="M45.06,45.47l-3,3.28a.16.16,0,0,0,0,.24h0l2.3,1.58A2.52,2.52,0,0,0,46,51a2.38,2.38,0,0,0,1.51-.7,39.48,39.48,0,0,0,4.17-5.18,36.81,36.81,0,0,0,3.15-5.69,1.68,1.68,0,0,0-.05-1.47,2.15,2.15,0,0,0-1.24-1L50.81,36a.21.21,0,0,0-.26.1h0L48.74,40a.17.17,0,0,0,.11.23h0l1.54.51c-.52,1-1.1,1.92-1.73,2.86h0c-.63.93-1.3,1.84-2,2.71l-1.29-.89a.23.23,0,0,0-.29,0Zm-2.58,3.36,2.77-3,1.3.89h0a.22.22,0,0,0,.28,0c.76-.92,1.49-1.89,2.16-2.89h0a34.63,34.63,0,0,0,1.84-3.06h0a.17.17,0,0,0-.12-.22L49.2,40l1.66-3.57,2.56.86a1.76,1.76,0,0,1,1,.84,1.38,1.38,0,0,1,0,1.21,36.4,36.4,0,0,1-3.12,5.64,39.12,39.12,0,0,1-4.13,5.13,2,2,0,0,1-1.24.57,2.08,2.08,0,0,1-1.35-.34Zm8.37-8.11h0Z" transform="translate(-32 -26)"/>
  </g>
</svg>
