<svg id="Layer_1" data-name="Layer 1" xmlns="http://www.w3.org/2000/svg" viewBox="0 0 1000 1000"><title>phone2</title><path d="M767.46,12.45c-4.2,2.11-33.89,42.07-83.67,112.89-42.54,60.07-78.76,112-80.4,115-4.21,8.42-3.51,26.88,1.4,35.53,2.57,4,23.84,23.37,47.68,42.77,49.08,40.2,54.23,46.74,54.46,69.18,0,12.62-1.17,15.9-17.06,44.88C619.05,562.17,562.73,618.5,433.24,689.32c-28.75,15.89-32.25,17.06-44.64,17.06-22.67-.24-28.28-4.68-69.18-54.46-20.1-24.31-39.26-45.81-42.77-47.68-10.29-5.14-21-6.08-30.62-3-13.32,4.67-229,158-233,165.71-4.91,9.35-4.21,14,5.14,36.46,32,78.07,85.31,149.35,128.55,171.79,26,13.55,41.37,16.59,74.56,14.72,177.39-8.88,384-119.2,537.79-286.54,86.25-94,145.85-186.28,186.28-288.64C975,339.44,989.74,272.13,990,211.36c.23-28.05-.47-34.59-4.91-46.28C965.43,113.19,898.82,58,808.37,19.47,782.43,8.48,777.05,7.55,767.46,12.45Z"/></svg>