<svg id="23b24364-b565-4a02-b5be-558930a4933a" data-name="Layer 1" xmlns="http://www.w3.org/2000/svg" xmlns:xlink="http://www.w3.org/1999/xlink" viewBox="0 0 97 71"><defs><style>.ad0955ba-85c4-4094-b3e7-3896d4d7b491,.b5914adf-e265-41dc-9e31-54d4fd3f45da{fill:none;}.ad0955ba-85c4-4094-b3e7-3896d4d7b491{clip-rule:evenodd;}.b72ff8ac-de58-4f4a-855f-dbef40e3a391{clip-path:url(#061f7fab-349f-4dee-b92f-9183727d23c8);}.\30 2660f44-cb6e-4f4e-ba0d-176dc41626c9{clip-path:url(#bc3986a5-7f88-496b-854e-ea8ab9386ef3);}.\36 829ce89-e661-41de-9e09-78fe1e27aa8a{fill:#a4d4d9;}.\36 6bbba48-7055-4c14-9581-2e8196aa245d{clip-path:url(#b403fc4f-3625-4b4d-8d83-d7f48a6ffa7c);}</style><clipPath id="061f7fab-349f-4dee-b92f-9183727d23c8" transform="translate(0 -12)"><path class="ad0955ba-85c4-4094-b3e7-3896d4d7b491" d="M16.54,78a.79.79,0,0,1-.65-.34.83.83,0,0,1,.09-1c.1-.1,9.63-9.9,9.27-18.7H25A20.26,20.26,0,0,1,5,37.46,20.26,20.26,0,0,1,25,17c10.82,0,19.78,9,20,20.09.06,4.58-1,27.65-28.12,40.83a.78.78,0,0,1-.34.08M26,56.25a.8.8,0,0,1,.79.72c.71,6.59-3.74,13.54-6.85,17.51C42.54,61.54,43.47,41.31,43.41,37.2,43.23,26.92,35,18.62,25,18.62A18.84,18.84,0,0,0,25,56.3l.64,0,.29,0h0"/></clipPath><clipPath id="bc3986a5-7f88-496b-854e-ea8ab9386ef3" transform="translate(0 -12)"><rect class="b5914adf-e265-41dc-9e31-54d4fd3f45da" x="4" y="15" width="89" height="64"/></clipPath><clipPath id="b403fc4f-3625-4b4d-8d83-d7f48a6ffa7c" transform="translate(0 -12)"><path class="ad0955ba-85c4-4094-b3e7-3896d4d7b491" d="M63.54,78a.79.79,0,0,1-.65-.34.83.83,0,0,1,.09-1c.1-.1,9.63-9.9,9.27-18.7H72A20.26,20.26,0,0,1,52,37.46,20.26,20.26,0,0,1,72,17c10.82,0,19.78,9,20,20.09.06,4.58-1,27.65-28.12,40.83a.78.78,0,0,1-.34.08M73,56.25a.8.8,0,0,1,.79.72c.71,6.59-3.74,13.54-6.85,17.51,22.62-13,23.55-33.18,23.49-37.28C90.23,26.92,82,18.62,72,18.62A18.84,18.84,0,0,0,72,56.3l.64,0,.29,0h0"/></clipPath></defs><title>quotes-icon</title><g class="b72ff8ac-de58-4f4a-855f-dbef40e3a391"><g class="02660f44-cb6e-4f4e-ba0d-176dc41626c9"><rect class="6829ce89-e661-41de-9e09-78fe1e27aa8a" width="50" height="71"/></g></g><g class="66bbba48-7055-4c14-9581-2e8196aa245d"><g class="02660f44-cb6e-4f4e-ba0d-176dc41626c9"><rect class="6829ce89-e661-41de-9e09-78fe1e27aa8a" x="47" width="50" height="71"/></g></g></svg>