<svg id="ccdd1e1e-c71e-4922-adac-56cb3a1d5a45" data-name="Layer 1" xmlns="http://www.w3.org/2000/svg" xmlns:xlink="http://www.w3.org/1999/xlink" viewBox="0 0 99 99"><defs><style>.\31 d4d7d73-61ad-4f40-bba0-a638b4724e31,.\39 c97188b-998e-4337-ad22-261324336bcc,.be399869-841a-4b56-a00e-eb3e6f6250f7{fill:none;}.\31 d4d7d73-61ad-4f40-bba0-a638b4724e31{clip-rule:evenodd;}.bc0d8997-1142-4cc3-9d8b-a56df347f3f4{clip-path:url(#7f51ed9e-1d90-49a4-92fb-13636e1f45c9);}.be399869-841a-4b56-a00e-eb3e6f6250f7{stroke:#a4d4d9;stroke-miterlimit:10;}.\35 7d2cd46-5ac6-4cd0-81e9-3a651ea1f084{clip-path:url(#bf4431d5-43e8-4c8a-b084-5d7a09de8ebf);}.\35 96243b0-beb6-4baf-b97d-774e53b12adc{fill:#0f2d3b;}.a7af66cb-e34c-4d78-8c53-9dfb19b51917{clip-path:url(#82944fca-dad2-437d-befb-ed11d315e333);}.\37 602db15-90d2-493b-b36b-5abfe829a202{clip-path:url(#e0b02d24-bd34-4a29-9f97-da2da4a2a322);}</style><clipPath id="7f51ed9e-1d90-49a4-92fb-13636e1f45c9" transform="translate(-0.5 -0.5)"><rect class="9c97188b-998e-4337-ad22-261324336bcc" x="-4" y="-4" width="108" height="108"/></clipPath><clipPath id="bf4431d5-43e8-4c8a-b084-5d7a09de8ebf" transform="translate(-0.5 -0.5)"><path class="1d4d7d73-61ad-4f40-bba0-a638b4724e31" d="M73.39,35H28.61a.61.61,0,0,0-.61.62V63a.61.61,0,0,0,.61.62H37.7v1.3c0,.9.1,1.11.84,1.11h25c.74,0,.84-.21.84-1.11v-1.3h9A.61.61,0,0,0,74,63V35.62A.61.61,0,0,0,73.39,35ZM63.66,64.89a.5.5,0,0,1-.15.39h-25a.5.5,0,0,1-.15-.39v-1.3H63.66v1.3Zm9.63-2H28.7V35.72H73.3Z"/></clipPath><clipPath id="82944fca-dad2-437d-befb-ed11d315e333" transform="translate(-0.5 -0.5)"><path class="1d4d7d73-61ad-4f40-bba0-a638b4724e31" d="M51,40A10,10,0,1,0,61,50,10,10,0,0,0,51,40m0,19.25A9.25,9.25,0,1,1,60.25,50,9.26,9.26,0,0,1,51,59.25"/></clipPath><clipPath id="e0b02d24-bd34-4a29-9f97-da2da4a2a322" transform="translate(-0.5 -0.5)"><path class="1d4d7d73-61ad-4f40-bba0-a638b4724e31" d="M47.19,43a.35.35,0,0,0-.19.31V55.65a.35.35,0,0,0,.19.31.39.39,0,0,0,.37,0l11.25-6.15a.35.35,0,0,0,0-.61L47.56,43A.39.39,0,0,0,47.19,43Zm.56.92L57.88,49.5,47.75,55Z"/></clipPath></defs><title>tv-icon</title><g class="bc0d8997-1142-4cc3-9d8b-a56df347f3f4"><circle class="be399869-841a-4b56-a00e-eb3e6f6250f7" cx="49.5" cy="49.5" r="49"/></g><g class="57d2cd46-5ac6-4cd0-81e9-3a651ea1f084"><g class="bc0d8997-1142-4cc3-9d8b-a56df347f3f4"><rect class="596243b0-beb6-4baf-b97d-774e53b12adc" x="22.5" y="29.5" width="56" height="41"/></g></g><g class="a7af66cb-e34c-4d78-8c53-9dfb19b51917"><g class="bc0d8997-1142-4cc3-9d8b-a56df347f3f4"><rect class="596243b0-beb6-4baf-b97d-774e53b12adc" x="35.5" y="34.5" width="30" height="30"/></g></g><g class="7602db15-90d2-493b-b36b-5abfe829a202"><g class="bc0d8997-1142-4cc3-9d8b-a56df347f3f4"><rect class="596243b0-beb6-4baf-b97d-774e53b12adc" x="41.5" y="37.5" width="22" height="23"/></g></g></svg>