<svg id="5104dac9-58bc-4ab6-b7f8-73e03e9e1c07" data-name="Layer 1" xmlns="http://www.w3.org/2000/svg" xmlns:xlink="http://www.w3.org/1999/xlink" viewBox="0 0 56 56"><defs><style>.\32 e327cce-19be-4fc0-b1df-e0acaa2a4b4d,.\39 f910613-3d8a-40f6-8ca9-82e948bc4f6f{fill:none;}.\39 f910613-3d8a-40f6-8ca9-82e948bc4f6f{clip-rule:evenodd;}.\37 f753a4c-1ad2-468f-996d-9e0084a5cb52{clip-path:url(#b7a8f903-856e-4ff7-bb4e-3133648191ea);}.\30 02e2e4e-73e3-4213-ba6c-caeb416c8d81{clip-path:url(#346f25f6-a2a6-482e-8a2b-1fa50a858375);}.\32 c8fd749-bd46-43f3-8934-9e9ccc79cb02{fill:#669dac;}.\31 4b0d887-bb63-42d4-952f-b446e32a3016{clip-path:url(#d0f54b80-b652-4601-b922-b9c125e29d88);}.\31 a77b413-f45e-4cf6-b09c-960950dae141{fill:#fff;}</style><clipPath id="b7a8f903-856e-4ff7-bb4e-3133648191ea" transform="translate(-23 -18)"><path class="9f910613-3d8a-40f6-8ca9-82e948bc4f6f" d="M74,46A23,23,0,1,1,51,23,23,23,0,0,1,74,46"/></clipPath><clipPath id="346f25f6-a2a6-482e-8a2b-1fa50a858375" transform="translate(-23 -18)"><rect class="2e327cce-19be-4fc0-b1df-e0acaa2a4b4d" x="27" y="21" width="48" height="49"/></clipPath><clipPath id="d0f54b80-b652-4601-b922-b9c125e29d88" transform="translate(-23 -18)"><path class="9f910613-3d8a-40f6-8ca9-82e948bc4f6f" d="M39.74,36.82c-1.25,2.88-1,5.35,1.28,7.54l-2.29-.66a6,6,0,0,0,4.13,5.59l-2.07,0a5.58,5.58,0,0,0,4.89,4A10.53,10.53,0,0,1,38,55.47a1,1,0,0,0,.29.26,14.5,14.5,0,0,0,6.28,2.18,14.14,14.14,0,0,0,9.34-2c4.84-3.13,7.26-7.78,7.46-13.69a1.19,1.19,0,0,1,.5-1A9.09,9.09,0,0,0,64,38.76c-.54.19-1,.35-1.39.47s-.87.19-1.3.29a6.41,6.41,0,0,0,2-2.84c-1,.35-2,.72-2.94,1a.79.79,0,0,1-.66-.18,5,5,0,0,0-5.4-1.19,5.15,5.15,0,0,0-3.53,4.27,15.06,15.06,0,0,0,0,2.2,15.27,15.27,0,0,1-11-6"/></clipPath></defs><title>twitter</title><g class="7f753a4c-1ad2-468f-996d-9e0084a5cb52"><g class="002e2e4e-73e3-4213-ba6c-caeb416c8d81"><rect class="2c8fd749-bd46-43f3-8934-9e9ccc79cb02" width="56" height="56"/></g></g><g class="14b0d887-bb63-42d4-952f-b446e32a3016"><g class="002e2e4e-73e3-4213-ba6c-caeb416c8d81"><rect class="1a77b413-f45e-4cf6-b09c-960950dae141" x="10" y="13" width="36" height="32"/></g></g></svg>